<?xml version="1.0" standalone="no"?>
<!DOCTYPE svg PUBLIC "-//W3C//DTD SVG 20010904//EN"
 "http://www.w3.org/TR/2001/REC-SVG-20010904/DTD/svg10.dtd">
<svg version="1.0" xmlns="http://www.w3.org/2000/svg"
 width="220.000000pt" height="220.000000pt" viewBox="0 0 220.000000 220.000000"
 preserveAspectRatio="xMidYMid meet">
<metadata>
Created by potrace 1.14, written by Peter Selinger 2001-2017
</metadata>
<g transform="translate(0.000000,220.000000) scale(0.100000,-0.100000)"
fill="#000000" stroke="none">
<path d="M0 1100 l0 -1100 1100 0 1100 0 0 1100 0 1100 -1100 0 -1100 0 0
-1100z m732 185 c73 -146 135 -265 139 -265 3 0 27 102 53 228 26 125 52 244
57 265 l10 37 109 0 c88 0 110 -3 110 -14 0 -15 -176 -858 -186 -888 -5 -16
-19 -18 -100 -18 l-94 0 -134 268 c-110 219 -135 262 -140 242 -10 -39 -106
-499 -106 -505 0 -3 -52 -5 -115 -5 -115 0 -115 0 -110 23 3 12 46 215 96 451
49 236 92 433 95 438 3 4 45 8 95 8 l89 0 132 -265z m1248 248 c0 -10 -8 -53
-17 -95 l-16 -78 -217 0 -216 0 -17 -82 c-9 -46 -17 -86 -17 -90 0 -5 86 -8
191 -8 160 0 190 -2 186 -14 -3 -8 -11 -43 -18 -77 -20 -106 -3 -98 -217 -101
l-187 -3 -36 -173 c-20 -95 -39 -175 -42 -178 -2 -3 -54 -3 -114 -2 l-109 3
97 455 c53 250 97 456 98 458 1 1 147 2 326 2 301 0 325 -1 325 -17z"/>
</g>
</svg>
