<?xml version="1.0" standalone="no"?>
<!DOCTYPE svg PUBLIC "-//W3C//DTD SVG 20010904//EN"
 "http://www.w3.org/TR/2001/REC-SVG-20010904/DTD/svg10.dtd">
<svg version="1.0" xmlns="http://www.w3.org/2000/svg"
 width="512.000000pt" height="512.000000pt" viewBox="0 0 512.000000 512.000000"
 preserveAspectRatio="xMidYMid meet">

<g transform="translate(0.000000,512.000000) scale(0.100000,-0.100000)"
fill="#2979ff"  class="coach-svg" stroke="none">
<path d="M2435 5050 c-409 -64 -728 -383 -791 -790 -10 -68 -13 -134 -8 -235
7 -151 -5 -266 -35 -345 -10 -25 -44 -81 -75 -125 -140 -193 -180 -348 -120
-461 15 -27 40 -73 55 -103 19 -36 29 -69 29 -98 0 -40 -4 -48 -42 -81 -76
-66 -126 -124 -160 -186 -30 -55 -33 -69 -33 -141 0 -68 4 -88 28 -133 30 -60
33 -72 15 -72 -21 0 -213 -96 -265 -131 -201 -137 -344 -363 -448 -704 -33
-107 -145 -638 -145 -685 0 -27 79 -119 144 -168 69 -53 175 -106 252 -128 36
-10 105 -18 177 -20 l117 -3 48 -41 c341 -302 1319 -427 2107 -269 277 55 520
154 640 261 l59 53 90 -3 c149 -6 291 34 413 115 71 47 181 156 189 188 8 31
-88 516 -132 670 -130 450 -316 691 -645 834 l-76 33 31 61 c27 53 31 70 31
141 0 69 -5 89 -29 138 -28 56 -94 132 -168 195 -33 27 -38 37 -38 75 0 30 10
62 29 99 83 152 84 156 79 238 -4 63 -12 91 -45 161 -22 47 -66 121 -98 165
-99 136 -116 212 -113 510 2 151 -1 204 -15 257 -91 363 -355 628 -709 713
-79 19 -264 27 -343 15z m332 -180 c155 -43 258 -105 368 -222 115 -122 182
-260 204 -422 12 -81 14 -156 6 -156 -3 0 -71 13 -152 30 -223 44 -358 60
-579 67 -275 8 -517 -17 -742 -76 -90 -23 -90 -24 -74 103 13 114 50 232 99
316 47 80 198 233 275 279 69 40 205 88 285 101 82 13 226 3 310 -20z m138
-885 c127 -17 283 -46 353 -64 l42 -12 -30 -44 c-31 -45 -89 -96 -150 -132
-58 -35 -163 -74 -197 -75 -17 0 -80 17 -140 38 -99 35 -117 38 -213 38 -95 0
-115 -3 -210 -36 -139 -48 -135 -48 -213 -21 -129 46 -251 134 -291 211 l-16
30 108 26 c96 23 260 48 382 60 92 8 459 -4 575 -19z m-915 -415 c173 -88 239
-93 395 -35 87 32 111 37 185 37 72 0 100 -5 180 -34 163 -60 199 -59 361 12
l92 39 -7 -86 c-13 -174 -65 -370 -133 -508 -136 -271 -364 -416 -583 -371
-275 58 -475 343 -545 776 -15 94 -20 200 -10 200 3 0 32 -14 65 -30z m-223
-125 c7 -54 17 -121 23 -148 6 -28 9 -52 6 -54 -8 -8 -67 94 -81 141 -20 66
-19 130 1 151 9 9 21 14 27 12 6 -2 17 -48 24 -102z m1639 88 c36 -37 -3 -200
-66 -273 l-22 -25 6 25 c3 14 13 79 22 145 9 66 18 126 20 133 5 17 19 15 40
-5z m194 -319 c0 -27 -7 -50 -20 -67 -11 -14 -35 -56 -53 -94 -29 -61 -32 -77
-32 -158 0 -109 19 -148 107 -219 125 -101 156 -198 92 -288 -22 -32 -37 -43
-55 -42 -13 1 -121 25 -239 54 -122 30 -241 53 -274 54 -57 1 -61 3 -79 34
-11 19 -22 60 -24 97 l-6 63 67 84 c39 48 89 128 119 189 50 101 54 106 92
117 87 23 190 126 242 239 l27 58 18 -40 c9 -22 18 -59 18 -81z m-1945 -57
c37 -46 135 -114 178 -123 29 -5 37 -16 84 -113 31 -62 80 -140 119 -189 l67
-84 -6 -63 c-2 -37 -13 -78 -24 -97 -17 -29 -24 -33 -58 -31 -35 3 -362 -68
-479 -102 -45 -14 -51 -13 -67 1 -27 24 -59 96 -59 130 0 47 54 129 122 185
95 78 113 114 113 224 0 81 -3 97 -32 158 -18 38 -42 80 -53 94 -22 29 -25 69
-9 127 l11 39 32 -59 c17 -32 45 -76 61 -97z m680 -656 c146 -61 304 -61 450
0 38 16 73 29 76 29 4 0 10 -17 14 -37 9 -49 47 -122 78 -151 14 -13 42 -30
64 -37 46 -16 52 -43 28 -137 -44 -176 -165 -307 -335 -364 -75 -25 -225 -25
-300 0 -170 57 -291 188 -335 364 -24 94 -18 121 28 137 22 7 50 24 64 37 31
29 69 102 78 151 4 20 10 37 14 37 3 0 38 -13 76 -29z m-432 -290 c10 -96 53
-213 108 -295 84 -126 194 -210 344 -262 71 -25 94 -28 205 -28 111 0 134 3
205 28 150 52 260 136 344 262 55 82 98 199 108 295 7 65 6 65 82 47 32 -7 51
-17 51 -25 0 -28 -102 -261 -156 -357 -123 -218 -247 -386 -461 -620 -153
-166 -162 -174 -197 -151 -30 20 -195 198 -302 325 -195 234 -350 490 -439
726 -14 37 -25 72 -25 79 0 12 61 31 106 34 19 1 22 -6 27 -58z m-181 -293
c122 -257 334 -551 575 -799 l113 -115 -29 -28 c-78 -74 -94 -218 -35 -312 53
-87 167 -137 262 -115 l42 9 0 -83 c0 -91 17 -127 65 -139 29 -7 79 15 89 39
3 9 6 121 6 248 0 223 -1 234 -24 282 -13 28 -35 61 -50 74 l-26 24 113 116
c307 317 527 649 656 990 l37 99 79 -23 c203 -59 362 -133 457 -212 157 -131
278 -361 358 -680 11 -45 20 -88 20 -96 0 -30 -324 -236 -372 -237 -13 0 -18
8 -18 27 0 92 -74 272 -143 348 -51 57 -90 64 -132 25 -36 -33 -32 -68 16
-133 53 -75 77 -131 94 -223 25 -130 13 -409 -19 -456 -23 -32 -98 -85 -174
-123 -368 -182 -1063 -251 -1658 -164 -348 50 -637 154 -746 268 -33 35 -37
45 -45 117 -13 123 -8 310 10 387 19 77 51 145 96 201 56 70 32 150 -44 150
-32 0 -44 -7 -77 -44 -55 -62 -114 -189 -135 -292 -9 -49 -22 -88 -28 -88 -20
0 -178 91 -253 145 -130 93 -118 73 -98 162 32 139 87 296 141 408 134 274
304 401 680 510 l79 23 37 -99 c21 -54 57 -140 81 -191z m-962 -979 c90 -60
201 -119 262 -138 36 -12 37 -12 43 -79 3 -37 8 -79 10 -94 4 -28 4 -28 -53
-28 -126 0 -269 55 -363 139 l-52 47 17 94 c22 123 25 132 39 123 7 -5 50 -33
97 -64z m3735 -54 l18 -100 -52 -46 c-94 -84 -237 -139 -365 -139 l-59 0 7 61
c3 34 6 76 6 94 0 29 4 33 43 44 61 19 202 93 293 156 53 36 81 50 85 42 4 -7
14 -57 24 -112z m-1874 -24 c49 -50 37 -121 -27 -147 -29 -12 -39 -12 -68 0
-64 26 -76 97 -27 147 40 39 82 39 122 0z"/>
</g>
</svg>
