<?xml version="1.0" standalone="no"?>
<!DOCTYPE svg PUBLIC "-//W3C//DTD SVG 20010904//EN"
 "http://www.w3.org/TR/2001/REC-SVG-20010904/DTD/svg10.dtd">
<svg version="1.0" xmlns="http://www.w3.org/2000/svg"
 width="512.000000pt" height="512.000000pt" viewBox="0 0 512.000000 512.000000"
 preserveAspectRatio="xMidYMid meet">

<g transform="translate(0.000000,512.000000) scale(0.100000,-0.100000)"
fill="#00e676" stroke="none">
<path d="M185 5095 l-25 -24 0 -296 0 -295 -40 0 -40 0 0 -80 0 -80 40 0 40 0
0 -295 0 -296 25 -24 24 -25 271 0 271 0 24 25 25 24 0 296 0 295 414 0 c497
0 458 -11 466 131 4 73 9 94 23 103 12 8 22 8 35 0 14 -10 17 -30 20 -142 l3
-131 -155 -117 c-86 -64 -158 -123 -160 -132 -3 -10 -24 -220 -46 -467 l-41
-450 83 -376 84 -376 41 -49 c113 -137 205 -358 249 -594 8 -47 18 -165 21
-262 l6 -178 78 0 79 0 0 75 c0 69 37 238 121 557 l10 38 53 -36 53 -35 6 -64
c11 -116 67 -201 169 -256 58 -31 70 -34 148 -34 78 0 90 3 148 34 101 55 158
142 169 256 l6 64 53 35 53 36 10 -38 c84 -319 121 -488 121 -557 l0 -75 80 0
80 0 0 123 c0 281 51 511 161 734 28 55 74 130 102 165 l51 63 84 375 83 375
-41 450 c-22 247 -43 457 -46 467 -2 9 -74 68 -160 132 l-155 117 3 131 c3
112 6 132 21 142 12 8 22 8 35 0 13 -9 18 -30 22 -103 8 -142 -31 -131 466
-131 l414 0 0 -295 0 -296 25 -24 24 -25 271 0 271 0 24 25 25 24 0 296 0 295
40 0 40 0 0 80 0 80 -40 0 -40 0 0 295 0 296 -25 24 -24 25 -271 0 -271 0 -24
-25 -25 -24 0 -296 0 -295 -80 0 -80 0 0 136 c0 77 -5 154 -12 176 -17 59 -88
133 -145 152 -58 20 -334 23 -397 4 -77 -23 -166 -135 -166 -210 0 -11 -15
-17 -55 -21 -104 -11 -171 -78 -182 -181 l-6 -56 -637 0 -637 0 -6 55 c-11
104 -78 171 -181 182 -40 4 -56 10 -56 21 0 74 -81 180 -157 206 -58 20 -334
23 -397 4 -55 -16 -138 -99 -154 -154 -7 -24 -12 -100 -12 -178 l0 -136 -80 0
-80 0 0 295 0 296 -25 24 -24 25 -271 0 -271 0 -24 -25z m215 -215 l0 -80 80
0 80 0 0 80 0 80 40 0 40 0 0 -560 0 -560 -40 0 -40 0 0 400 0 400 -80 0 -80
0 0 -400 0 -400 -40 0 -40 0 0 560 0 560 40 0 40 0 0 -80z m4160 -320 l0 -400
80 0 80 0 0 400 0 400 40 0 40 0 0 -560 0 -560 -40 0 -40 0 0 80 0 80 -80 0
-80 0 0 -80 0 -80 -40 0 -40 0 0 560 0 560 40 0 40 0 0 -400z m-3065 215 c24
-23 25 -29 25 -160 l0 -135 -200 0 -200 0 0 135 c0 131 1 137 25 160 23 24 28
25 175 25 147 0 152 -1 175 -25z m2480 0 c24 -23 25 -29 25 -160 l0 -135 -200
0 -200 0 0 135 c0 131 1 137 25 160 23 24 28 25 175 25 147 0 152 -1 175 -25z
m-775 -509 c0 -37 5 -60 18 -74 9 -11 81 -68 159 -126 93 -69 144 -114 147
-129 3 -12 21 -200 40 -417 l35 -395 -74 -335 c-41 -184 -75 -335 -75 -337 0
-2 -128 -88 -285 -193 -157 -105 -285 -186 -285 -181 0 5 22 26 50 46 118 87
214 227 249 366 l18 72 53 20 c72 27 141 96 169 170 19 53 21 77 21 286 0 160
-5 255 -15 316 -72 414 -444 725 -865 725 -422 0 -793 -311 -865 -725 -10 -61
-15 -157 -15 -316 0 -209 2 -233 21 -286 28 -74 97 -143 169 -170 l53 -20 18
-72 c35 -139 131 -279 249 -366 28 -20 50 -41 50 -46 0 -5 -128 76 -285 181
-157 105 -285 191 -285 193 0 2 -34 153 -75 337 l-74 335 35 395 c19 217 37
405 40 417 3 15 54 60 147 129 78 58 150 115 160 126 12 14 17 37 17 74 l0 54
640 0 640 0 0 -54z m-428 -379 c117 -37 203 -90 294 -181 138 -139 201 -283
211 -485 6 -106 5 -114 -11 -108 -10 4 -29 7 -42 7 -15 0 -24 6 -24 15 0 30
-47 65 -87 65 -82 1 -167 63 -224 166 -55 96 -91 98 -186 14 -79 -71 -158
-112 -264 -139 -87 -22 -264 -41 -387 -41 -75 0 -85 -2 -107 -25 -14 -13 -25
-31 -25 -40 0 -9 -9 -15 -24 -15 -13 0 -32 -3 -42 -7 -16 -6 -17 2 -11 108 10
202 73 346 211 485 110 110 236 177 381 204 86 16 251 5 337 -23z m74 -726
c54 -53 84 -74 132 -91 l62 -23 0 -217 c0 -250 -7 -298 -55 -396 -90 -184
-303 -299 -492 -267 -151 26 -291 130 -358 267 -48 98 -55 147 -55 392 l0 214
28 0 c69 0 264 21 332 36 105 22 215 67 280 114 30 21 55 39 55 39 1 1 32 -30
71 -68z m-926 -311 c0 -60 -4 -110 -9 -110 -5 0 -23 16 -40 35 -26 30 -31 44
-31 88 0 57 5 68 35 85 42 24 45 18 45 -98z m1323 99 c32 -17 37 -28 37 -86 0
-44 -5 -58 -31 -88 -17 -19 -35 -35 -40 -35 -5 0 -9 50 -9 110 0 115 2 120 43
99z m-1256 -903 c1 -1 -8 -39 -19 -84 l-21 -83 -32 98 c-18 54 -37 110 -44
126 -11 27 -10 27 52 -14 34 -23 63 -43 64 -43z m1261 57 c-6 -16 -25 -72 -43
-126 l-32 -98 -21 83 c-16 62 -18 85 -9 90 7 4 35 23 62 42 28 19 51 35 52 35
1 1 -2 -11 -9 -26z m-688 -98 c41 0 95 3 118 8 l44 8 -4 -120 c-3 -130 -11
-150 -72 -195 -39 -29 -133 -29 -172 0 -61 45 -69 65 -72 195 l-4 120 44 -8
c23 -5 77 -8 118 -8z"/>
<path d="M912 3628 c-35 -563 -38 -731 -22 -998 27 -443 67 -624 194 -885 35
-71 94 -177 133 -235 l69 -105 160 -680 c130 -555 163 -684 181 -703 l22 -22
911 0 911 0 22 23 c18 18 51 147 181 702 l160 680 72 110 c181 276 271 528
304 850 39 383 38 617 -2 1268 l-32 527 -78 0 -78 0 0 -43 c0 -24 14 -259 31
-523 26 -410 30 -516 25 -734 -15 -661 -74 -903 -313 -1271 l-81 -124 -91
-395 c-51 -217 -95 -403 -97 -412 -5 -16 -8 -17 -42 -2 -20 8 -47 25 -60 37
-59 56 -112 226 -112 363 l0 64 -80 0 -80 0 0 -77 c0 -96 29 -238 64 -317 52
-117 135 -200 228 -228 21 -6 38 -14 38 -17 0 -3 -16 -77 -37 -164 l-37 -157
-816 0 -816 0 -37 158 c-21 86 -37 160 -37 163 0 3 17 11 38 17 93 28 176 111
228 228 35 79 64 221 64 317 l0 77 -80 0 -80 0 0 -64 c0 -137 -53 -307 -112
-363 -13 -12 -40 -29 -60 -37 -34 -15 -37 -14 -42 2 -2 9 -46 195 -97 412
l-91 395 -81 124 c-238 367 -298 609 -313 1266 -5 213 -1 321 25 729 17 264
31 501 31 528 l0 48 -78 0 -78 0 -32 -532z"/>
<path d="M1360 1761 c0 -77 1 -81 23 -81 66 0 123 -79 134 -186 l6 -54 78 0
79 0 0 33 c0 51 -27 161 -49 206 -44 85 -128 144 -225 157 l-46 7 0 -82z"/>
<path d="M3662 1825 c-127 -39 -201 -148 -218 -321 l-7 -64 80 0 80 0 6 54
c11 107 68 186 135 186 21 0 22 4 22 80 l0 80 -27 -1 c-16 0 -47 -6 -71 -14z"/>
</g>
</svg>
