<?xml version="1.0" standalone="no"?>
<!DOCTYPE svg PUBLIC "-//W3C//DTD SVG 20010904//EN"
 "http://www.w3.org/TR/2001/REC-SVG-20010904/DTD/svg10.dtd">
<svg version="1.0" xmlns="http://www.w3.org/2000/svg"
 width="512.000000pt" height="512.000000pt" viewBox="0 0 512.000000 512.000000"
 preserveAspectRatio="xMidYMid meet">

<g transform="translate(0.000000,512.000000) scale(0.100000,-0.100000)"
fill="#00e676" stroke="none">
<path d="M3411 5106 c-47 -26 -50 -44 -51 -314 0 -275 4 -297 55 -320 51 -23
107 -7 131 39 19 37 21 514 2 554 -22 48 -88 68 -137 41z"/>
<path d="M2580 4703 c-55 -20 -83 -89 -57 -139 8 -16 85 -98 170 -181 151
-150 156 -153 198 -153 61 0 99 37 99 98 0 44 -2 46 -152 199 -177 179 -202
196 -258 176z"/>
<path d="M4245 4682 c-22 -16 -102 -92 -177 -170 -135 -137 -138 -141 -138
-184 0 -61 38 -98 99 -98 42 0 47 3 198 153 85 83 162 165 170 181 31 59 -9
131 -78 142 -27 5 -42 0 -74 -24z"/>
<path d="M3366 4050 c-63 -16 -153 -70 -197 -117 -22 -24 -55 -74 -71 -110
-29 -61 -32 -76 -39 -227 -4 -93 -14 -186 -24 -221 -87 -323 -429 -612 -965
-818 -123 -47 -319 -109 -410 -130 -21 -5 -29 1 -52 38 -14 24 -46 58 -69 74
-82 60 -90 61 -671 61 -574 0 -571 0 -596 -55 -17 -38 -17 -2452 0 -2490 25
-55 22 -55 596 -55 581 0 589 1 671 61 23 16 55 50 69 74 15 25 33 42 40 40 7
-2 112 -30 234 -60 433 -109 546 -117 1428 -113 l645 3 67 32 c93 44 151 100
196 191 35 72 37 81 37 171 0 84 -4 104 -29 159 -16 34 -27 64 -25 66 2 1 28
16 57 31 69 37 126 100 165 183 29 61 32 76 32 162 0 83 -4 103 -29 158 -16
34 -27 64 -25 66 2 1 28 16 57 31 69 37 126 100 165 183 29 61 32 76 32 162 0
83 -4 103 -29 158 -16 34 -27 64 -25 66 2 1 28 16 57 31 69 37 126 100 165
183 29 61 32 76 32 163 0 90 -2 99 -37 171 -45 91 -103 147 -196 191 l-67 32
-417 3 c-230 2 -418 6 -418 10 0 4 16 55 35 114 88 276 132 660 106 928 -9 99
-16 125 -46 186 -65 132 -187 213 -333 220 -42 2 -94 -1 -116 -6z m204 -224
c66 -43 81 -81 91 -219 14 -185 -10 -488 -52 -667 -21 -86 -51 -185 -81 -262
l-29 -78 -180 0 c-136 0 -187 -3 -208 -14 -28 -15 -51 -53 -51 -87 0 -28 26
-75 47 -85 10 -5 333 -11 718 -14 l700 -5 38 -24 c21 -13 50 -42 65 -64 22
-34 27 -52 27 -106 0 -79 -25 -128 -88 -169 l-40 -27 -301 -5 c-166 -3 -309
-9 -319 -14 -21 -10 -47 -57 -47 -86 0 -29 26 -76 47 -86 10 -5 108 -11 219
-14 197 -5 201 -6 241 -32 62 -41 88 -90 88 -168 0 -78 -26 -127 -88 -168
l-40 -27 -301 -5 c-166 -3 -309 -9 -319 -14 -21 -10 -47 -57 -47 -86 0 -29 26
-76 47 -86 10 -5 108 -11 219 -14 197 -5 201 -6 241 -32 62 -41 88 -90 88
-168 0 -78 -26 -127 -88 -168 l-40 -27 -301 -5 c-166 -3 -309 -9 -319 -14 -21
-10 -47 -57 -47 -86 0 -29 26 -76 47 -86 10 -5 108 -11 219 -14 197 -5 201 -6
241 -32 63 -41 88 -90 88 -169 0 -54 -5 -72 -27 -106 -15 -22 -44 -51 -65 -64
l-38 -24 -630 -3 c-866 -4 -962 3 -1405 117 l-225 57 -3 922 -2 921 42 11
c659 169 1153 454 1389 801 111 164 157 311 168 540 6 136 10 160 30 192 25
40 67 74 109 88 46 15 130 3 172 -25z m-2165 -1438 c57 -26 55 21 55 -1088 0
-1109 2 -1062 -55 -1088 -19 -9 -150 -12 -485 -12 l-460 0 0 1100 0 1100 460
0 c335 0 466 -3 485 -12z"/>
<path d="M1111 1986 c-87 -48 -50 -186 49 -186 51 0 100 49 100 99 0 75 -83
124 -149 87z"/>
<path d="M1111 1586 c-50 -28 -50 -32 -51 -483 0 -454 1 -463 51 -489 52 -27
115 -8 137 41 17 37 17 853 0 890 -22 48 -88 68 -137 41z"/>
<path d="M2211 3846 c-47 -26 -63 -84 -37 -135 25 -47 49 -51 287 -51 239 0
264 5 287 55 23 51 7 107 -39 131 -39 20 -462 20 -498 0z"/>
<path d="M4211 3846 c-47 -26 -63 -84 -37 -135 25 -47 49 -51 287 -51 239 0
264 5 287 55 23 51 7 107 -39 131 -39 20 -462 20 -498 0z"/>
</g>
</svg>
