<?xml version="1.0" standalone="no"?>
<!DOCTYPE svg PUBLIC "-//W3C//DTD SVG 20010904//EN"
 "http://www.w3.org/TR/2001/REC-SVG-20010904/DTD/svg10.dtd">
<svg version="1.0" xmlns="http://www.w3.org/2000/svg"
 width="512.000000pt" height="512.000000pt" viewBox="0 0 512.000000 512.000000"
 preserveAspectRatio="xMidYMid meet">

<g transform="translate(0.000000,512.000000) scale(0.100000,-0.100000)"
fill="#ff1744" stroke="none">
<path d="M2083 5102 c-63 -23 -115 -61 -154 -115 -31 -43 -59 -122 -59 -168 0
-51 -20 -59 -140 -59 -86 0 -121 -4 -164 -21 -70 -26 -140 -93 -172 -164 l-24
-55 -412 0 c-378 0 -416 -2 -453 -19 -51 -23 -111 -89 -125 -138 -8 -27 -10
-626 -8 -2125 l3 -2086 30 -43 c17 -24 53 -57 80 -74 l48 -30 1716 -3 c1273
-2 1727 0 1758 9 57 16 121 72 149 133 l24 51 0 990 c-1 1063 2 1013 -51 1034
-30 11 -83 -8 -93 -34 -3 -9 -6 -458 -6 -997 l0 -980 -29 -29 -29 -29 -1692 0
c-1804 0 -1736 -2 -1754 45 -3 9 -6 941 -6 2071 l0 2055 25 24 c21 22 33 25
100 25 l75 0 0 -1897 c0 -1275 4 -1910 10 -1935 13 -45 51 -93 94 -116 28 -15
83 -17 573 -20 l542 -3 11 -34 c14 -43 68 -91 121 -106 63 -19 117 0 210 74
l79 62 662 5 663 5 40 23 c22 13 52 39 65 59 l25 37 3 604 2 605 -22 24 c-26
28 -67 30 -99 4 l-24 -19 -3 -586 c-2 -566 -3 -586 -22 -596 -12 -7 -202 -9
-557 -8 l-538 3 76 62 c64 52 231 256 1075 1308 549 685 1008 1263 1018 1283
13 25 21 65 24 120 4 77 2 87 -27 147 -55 111 -147 169 -271 169 -80 0 -129
-16 -185 -58 -17 -14 -481 -585 -1031 -1271 l-999 -1246 -130 -257 -130 -257
-537 -3 c-478 -2 -538 0 -552 14 -14 14 -16 197 -16 1910 l0 1894 249 0 249 0
4 -60 c3 -47 10 -67 34 -97 62 -78 7 -73 868 -73 l768 0 40 22 c50 28 87 90
95 157 l6 51 243 0 244 0 0 -581 0 -581 30 -30 c25 -24 36 -29 58 -24 15 4 35
16 45 28 16 19 17 63 17 604 l0 584 78 0 c135 -1 132 8 132 -395 l0 -326 25
-24 c31 -32 69 -32 100 0 l25 24 0 338 c-1 364 -3 381 -54 448 -15 19 -49 46
-76 60 l-49 25 -414 0 -414 0 -21 49 c-26 64 -84 126 -146 159 -45 23 -67 27
-179 31 -143 7 -157 13 -157 78 0 92 -79 206 -177 254 -43 21 -64 24 -203 26
-130 3 -163 0 -207 -15z m364 -158 c45 -33 70 -78 77 -139 7 -65 17 -88 55
-128 47 -51 76 -60 218 -66 151 -7 172 -16 211 -91 17 -35 22 -61 22 -126 0
-57 -4 -85 -14 -93 -9 -8 -215 -10 -752 -9 l-739 3 -3 101 c-2 90 0 103 20
134 46 66 66 74 206 81 104 4 135 9 169 27 57 30 93 86 102 159 9 69 31 114
68 141 44 30 50 31 195 29 121 -2 140 -4 165 -23z m2089 -1475 c58 -35 83
-134 50 -197 -19 -36 -236 -308 -245 -305 -3 1 -59 44 -123 95 -71 56 -114 96
-109 103 141 184 247 305 279 319 45 19 103 13 148 -15z m-393 -539 c63 -50
103 -89 98 -95 -12 -15 -1583 -1979 -1590 -1987 -7 -8 -236 170 -240 187 -1 6
357 458 796 1006 674 842 800 995 814 985 8 -6 63 -49 122 -96z m-1712 -2110
c54 -45 99 -84 98 -88 -1 -14 -399 -327 -416 -327 -10 0 -19 8 -21 19 -4 20
217 476 231 476 4 0 53 -36 108 -80z"/>
<path d="M1753 3740 c-24 -10 -62 -58 -188 -243 -44 -64 -84 -116 -88 -117 -4
0 -46 34 -92 75 -92 81 -114 89 -159 54 -19 -15 -26 -30 -26 -54 0 -30 11 -44
106 -130 58 -52 117 -98 130 -101 46 -12 105 3 135 33 58 58 279 387 279 414
0 50 -52 87 -97 69z"/>
<path d="M2183 3700 c-44 -18 -57 -86 -23 -120 20 -20 33 -20 583 -20 623 0
586 -4 602 62 6 22 1 33 -23 58 l-30 30 -544 -1 c-299 0 -553 -4 -565 -9z"/>
<path d="M2160 3350 c-27 -27 -26 -81 1 -106 20 -18 46 -19 576 -22 l554 -2
31 30 c24 25 29 36 23 58 -16 66 21 62 -602 62 -550 0 -563 0 -583 -20z"/>
<path d="M1743 2643 c-7 -2 -70 -85 -139 -184 -110 -158 -128 -178 -142 -167
-9 7 -48 41 -86 75 -79 70 -118 81 -156 43 -33 -33 -26 -77 19 -120 161 -154
214 -184 284 -161 44 15 50 22 200 238 139 199 149 224 101 262 -26 20 -55 25
-81 14z"/>
<path d="M2160 2610 c-43 -43 -14 -113 52 -125 18 -3 271 -5 561 -3 l529 3 24
28 c29 34 30 56 3 91 l-20 26 -565 0 c-551 0 -564 0 -584 -20z"/>
<path d="M2162 2280 c-32 -30 -30 -82 4 -109 26 -20 39 -21 305 -21 185 0 286
4 303 11 51 23 55 103 7 128 -13 7 -124 11 -308 11 -277 0 -290 -1 -311 -20z"/>
<path d="M1743 1563 c-7 -2 -70 -85 -139 -184 -110 -158 -128 -178 -142 -167
-9 7 -48 41 -86 75 -79 70 -118 81 -156 43 -37 -37 -27 -78 33 -133 170 -161
221 -183 304 -131 12 8 83 101 158 208 148 213 157 237 109 275 -26 20 -55 25
-81 14z"/>
</g>
</svg>
